REM DIRINDEX 1\2,1\3,1\4,1\5
REM DIRNAME "folder01","folder02","folder03","folder04","folder05"
TITLE ""
FILE "1Q_t_0188-0200.mp3" MP3
  TRACK 01 AUDIO
    TITLE "3:cjc172_1478"
    INDEX 01 00:00:00
  TRACK 02 AUDIO
    TITLE "0:"
    INDEX 01 00:01:08
  TRACK 03 AUDIO
    TITLE "4:cjc172_1479"
    INDEX 01 00:01:23
  TRACK 04 AUDIO
    TITLE "0:"
    INDEX 01 00:03:69
  TRACK 05 AUDIO
    TITLE "5:cjc172_1480"
    INDEX 01 00:04:10
  TRACK 06 AUDIO
    TITLE "0:"
    INDEX 01 00:08:37
  TRACK 07 AUDIO
    TITLE "3:cjc172_1481"
    INDEX 01 00:09:17
  TRACK 08 AUDIO
    TITLE "0:"
    INDEX 01 00:10:44
  TRACK 09 AUDIO
    TITLE "4:cjc172_1482"
    INDEX 01 00:10:60
  TRACK 10 AUDIO
    TITLE "0:"
    INDEX 01 00:12:19
  TRACK 11 AUDIO
    TITLE "5:cjc172_1483"
    INDEX 01 00:12:37
  TRACK 12 AUDIO
    TITLE "0:"
    INDEX 01 00:17:64
  TRACK 13 AUDIO
    TITLE "3:cjc172_1484"
    INDEX 01 00:18:42
  TRACK 14 AUDIO
    TITLE "0:"
    INDEX 01 00:19:55
  TRACK 15 AUDIO
    TITLE "4:cjc172_1485"
    INDEX 01 00:19:70
  TRACK 16 AUDIO
    TITLE "0:"
    INDEX 01 00:22:63
  TRACK 17 AUDIO
    TITLE "5:cjc172_1486"
    INDEX 01 00:23:03
  TRACK 18 AUDIO
    TITLE "0:"
    INDEX 01 00:27:44
  TRACK 19 AUDIO
    TITLE "3:cjc172_1487"
    INDEX 01 00:28:22
  TRACK 20 AUDIO
    TITLE "0:"
    INDEX 01 00:29:41
  TRACK 21 AUDIO
    TITLE "4:cjc172_1488"
    INDEX 01 00:29:57
  TRACK 22 AUDIO
    TITLE "0:"
    INDEX 01 00:31:05
  TRACK 23 AUDIO
    TITLE "5:cjc172_1489"
    INDEX 01 00:31:17
  TRACK 24 AUDIO
    TITLE "0:"
    INDEX 01 00:35:11
  TRACK 25 AUDIO
    TITLE "3:cjc172_1490"
    INDEX 01 00:35:65
  TRACK 26 AUDIO
    TITLE "0:"
    INDEX 01 00:37:06
  TRACK 27 AUDIO
    TITLE "4:cjc172_1491"
    INDEX 01 00:37:21
  TRACK 28 AUDIO
    TITLE "0:"
    INDEX 01 00:38:30
  TRACK 29 AUDIO
    TITLE "5:cjc172_1492"
    INDEX 01 00:38:46
  TRACK 30 AUDIO
    TITLE "0:"
    INDEX 01 00:42:56
  TRACK 31 AUDIO
    TITLE "3:cjc172_1493"
    INDEX 01 00:43:36
  TRACK 32 AUDIO
    TITLE "0:"
    INDEX 01 00:44:33
  TRACK 33 AUDIO
    TITLE "4:cjc172_1494"
    INDEX 01 00:44:51
  TRACK 34 AUDIO
    TITLE "0:"
    INDEX 01 00:47:14
  TRACK 35 AUDIO
    TITLE "5:cjc172_1495"
    INDEX 01 00:47:27
  TRACK 36 AUDIO
    TITLE "0:"
    INDEX 01 00:53:07
  TRACK 37 AUDIO
    TITLE "3:cjc172_1496"
    INDEX 01 00:53:61
  TRACK 38 AUDIO
    TITLE "0:"
    INDEX 01 00:55:09
  TRACK 39 AUDIO
    TITLE "4:cjc172_1497"
    INDEX 01 00:55:27
  TRACK 40 AUDIO
    TITLE "0:"
    INDEX 01 00:58:04
  TRACK 41 AUDIO
    TITLE "5:cjc172_1498"
    INDEX 01 00:58:18
  TRACK 42 AUDIO
    TITLE "0:"
    INDEX 01 01:04:16
  TRACK 43 AUDIO
    TITLE "3:cjc172_1499"
    INDEX 01 01:04:69
  TRACK 44 AUDIO
    TITLE "0:"
    INDEX 01 01:06:19
  TRACK 45 AUDIO
    TITLE "4:cjc172_1500"
    INDEX 01 01:06:39
  TRACK 46 AUDIO
    TITLE "0:"
    INDEX 01 01:09:70
  TRACK 47 AUDIO
    TITLE "5:cjc172_1501"
    INDEX 01 01:10:11
  TRACK 48 AUDIO
    TITLE "0:"
    INDEX 01 01:14:54
  TRACK 49 AUDIO
    TITLE "3:cjc172_1502"
    INDEX 01 01:15:32
  TRACK 50 AUDIO
    TITLE "0:"
    INDEX 01 01:16:31
  TRACK 51 AUDIO
    TITLE "4:cjc172_1503"
    INDEX 01 01:16:47
  TRACK 52 AUDIO
    TITLE "0:"
    INDEX 01 01:17:64
  TRACK 53 AUDIO
    TITLE "5:cjc172_1504"
    INDEX 01 01:18:03
  TRACK 54 AUDIO
    TITLE "0:"
    INDEX 01 01:22:42
  TRACK 55 AUDIO
    TITLE "3:cjc172_1505"
    INDEX 01 01:23:19
  TRACK 56 AUDIO
    TITLE "0:"
    INDEX 01 01:24:42
  TRACK 57 AUDIO
    TITLE "4:cjc172_1506"
    INDEX 01 01:24:58
  TRACK 58 AUDIO
    TITLE "0:"
    INDEX 01 01:26:04
  TRACK 59 AUDIO
    TITLE "5:cjc172_1507"
    INDEX 01 01:26:18
  TRACK 60 AUDIO
    TITLE "0:"
    INDEX 01 01:32:38
  TRACK 61 AUDIO
    TITLE "2:cjc172_1508"
    INDEX 01 01:33:18
  TRACK 62 AUDIO
    TITLE "0:"
    INDEX 01 01:34:19
  TRACK 63 AUDIO
    TITLE "3:cjc172_1509"
    INDEX 01 01:34:72
  TRACK 64 AUDIO
    TITLE "0:"
    INDEX 01 01:36:14
  TRACK 65 AUDIO
    TITLE "4:cjc172_1510"
    INDEX 01 01:36:32
  TRACK 66 AUDIO
    TITLE "0:"
    INDEX 01 01:39:01
  TRACK 67 AUDIO
    TITLE "5:cjc172_1511"
    INDEX 01 01:39:16
  TRACK 68 AUDIO
    TITLE "0:"
    INDEX 01 01:45:13
  TRACK 69 AUDIO
    TITLE "3:cjc172_1512"
    INDEX 01 01:45:68
  TRACK 70 AUDIO
    TITLE "0:"
    INDEX 01 01:47:08
  TRACK 71 AUDIO
    TITLE "4:cjc172_1513"
    INDEX 01 01:47:26
  TRACK 72 AUDIO
    TITLE "0:"
    INDEX 01 01:49:70
  TRACK 73 AUDIO
    TITLE "5:cjc172_1514"
    INDEX 01 01:50:10
  TRACK 74 AUDIO
    TITLE "0:"
    INDEX 01 01:56:52
  TRACK 75 AUDIO
    TITLE "3:cjc172_1515"
    INDEX 01 01:57:30
  TRACK 76 AUDIO
    TITLE "0:"
    INDEX 01 01:58:53
  TRACK 77 AUDIO
    TITLE "4:cjc172_1516"
    INDEX 01 01:58:71
  TRACK 78 AUDIO
    TITLE "0:"
    INDEX 01 02:00:48
  TRACK 79 AUDIO
    TITLE "5:cjc172_1517"
    INDEX 01 02:00:62
  TRACK 80 AUDIO
    TITLE "0:"
    INDEX 01 02:06:17
